<svg id="Layer_1" data-name="Layer 1" xmlns="http://www.w3.org/2000/svg" viewBox="0 0 186.38 51.31"><defs><style>.cls-1{fill:#fff;}</style></defs><path class="cls-1" d="M3.55,27.81a15.52,15.52,0,0,1,.89-5.27,12.74,12.74,0,0,1,6.84-7.29,13.93,13.93,0,0,1,5.62-1.08A18.61,18.61,0,0,1,24,15.6l-1.53,5.86a21.84,21.84,0,0,0-2.26-.69,11.62,11.62,0,0,0-2.76-.3,6,6,0,0,0-4.88,2A8.44,8.44,0,0,0,11,27.79a8.83,8.83,0,0,0,1.47,5.42q1.53,1.92,5.27,1.92a17.08,17.08,0,0,0,2.86-.25,11.41,11.41,0,0,0,2.81-.79l1,6a17.56,17.56,0,0,1-3.2.94,21.45,21.45,0,0,1-4.24.39,16.26,16.26,0,0,1-6.1-1,12,12,0,0,1-4.24-2.91,11.94,11.94,0,0,1-2.41-4.28A19.45,19.45,0,0,1,3.55,27.81Zm49.24-13q-2.22,7.49-4.63,14T42.89,41.52a26.73,26.73,0,0,1-2.07,3.74,10.61,10.61,0,0,1-2.26,2.56,7.53,7.53,0,0,1-2.81,1.48,11.51,11.51,0,0,1-3.6.49,13.82,13.82,0,0,1-3.2-.34,14.14,14.14,0,0,1-2.36-.69l1.28-5.86a12.57,12.57,0,0,0,2,.54,11.79,11.79,0,0,0,1.87.15,3.92,3.92,0,0,0,3-1.09,7.81,7.81,0,0,0,1.83-2.9q-2.52-4.92-5-11a141.8,141.8,0,0,1-4.72-13.79h7.78c.32,1.28.7,2.67,1.13,4.19s.93,3,1.43,4.53,1,3,1.47,4.43,1,2.76,1.48,3.94c.43-1.18.87-2.5,1.33-3.94s.9-2.92,1.33-4.43.89-3.06,1.28-4.53.81-2.91,1.13-4.19ZM73.32,27.56q0-7.08-5.22-7.09a8.74,8.74,0,0,0-2.27.3,6.1,6.1,0,0,0-1.77.74V34.85c.36.07.82.13,1.38.2a15.18,15.18,0,0,0,1.82.05A5.29,5.29,0,0,0,71.79,33a9,9,0,0,0,1.53-5.45Zm7.48.2a15.78,15.78,0,0,1-.93,5.61,11.7,11.7,0,0,1-2.61,4.29A12,12,0,0,1,73,40.42a16.29,16.29,0,0,1-5.71.93,26.45,26.45,0,0,1-2.81-.15c-1-.06-1.9-.16-2.85-.29s-1.81-.28-2.66-.44a21,21,0,0,1-2.27-.6V3.7l7.34-1.18v12.9a14.74,14.74,0,0,1,2.56-.84,13.74,13.74,0,0,1,2.86-.29,11.64,11.64,0,0,1,4.87,1A9.47,9.47,0,0,1,77.9,18a12.14,12.14,0,0,1,2.16,4.29,18.71,18.71,0,0,1,.74,5.52Zm4.41.2a16.17,16.17,0,0,1,1-6A13.47,13.47,0,0,1,89,17.63,11.59,11.59,0,0,1,93,15a12.7,12.7,0,0,1,4.63-.89,11.38,11.38,0,0,1,8.72,3.4q3.21,3.34,3.2,9.9v1.42c0,.52-.07.94-.1,1.33H92.72a4.93,4.93,0,0,0,2.12,3.6,8.51,8.51,0,0,0,5,1.33,22.63,22.63,0,0,0,3.94-.35,15.44,15.44,0,0,0,3.2-.93l1,6a11.11,11.11,0,0,1-1.58.59,18.12,18.12,0,0,1-2.21.49c-.84.17-1.7.3-2.56.39a25.25,25.25,0,0,1-2.76.15,16.34,16.34,0,0,1-6.11-1,12.58,12.58,0,0,1-4.28-2.81A11.86,11.86,0,0,1,86,33.36,17.5,17.5,0,0,1,85.21,28Zm17.24-2.81a6.67,6.67,0,0,0-.35-1.82,3.9,3.9,0,0,0-.84-1.58,4.11,4.11,0,0,0-1.42-1.13,4.42,4.42,0,0,0-2.12-.44,4.72,4.72,0,0,0-2.12.44,4.25,4.25,0,0,0-1.48,1.08,5.39,5.39,0,0,0-.93,1.63,11.26,11.26,0,0,0-.45,1.82Zm28.36-3.84c-.66-.16-1.43-.33-2.32-.49a12.38,12.38,0,0,0-2.85-.3,11.92,11.92,0,0,0-1.68.15,8.62,8.62,0,0,0-1.42.25V40.71H115.2V16.21a39.73,39.73,0,0,1,4.63-1.28,26.38,26.38,0,0,1,6-.64,11.17,11.17,0,0,1,1.42.1,13.28,13.28,0,0,1,1.68.19,15.34,15.34,0,0,1,1.67.3,7,7,0,0,1,1.43.39Zm20.77,0c-.65-.16-1.42-.33-2.31-.49a13,13,0,0,0-2.86-.3,11.78,11.78,0,0,0-1.67.15,8.74,8.74,0,0,0-1.43.25V40.71H136V16.21a41.8,41.8,0,0,1,4.63-1.28,26.38,26.38,0,0,1,6-.64,11.32,11.32,0,0,1,1.43.1,13.34,13.34,0,0,1,1.67.19,15.52,15.52,0,0,1,1.68.3,7,7,0,0,1,1.43.39Zm29.71-6.5q-2.22,7.49-4.63,14t-5.27,12.71a26.73,26.73,0,0,1-2.07,3.74,10.65,10.65,0,0,1-2.27,2.56,7.41,7.41,0,0,1-2.8,1.48,11.51,11.51,0,0,1-3.6.49,13.82,13.82,0,0,1-3.2-.34,14.14,14.14,0,0,1-2.36-.69l1.28-5.86a12.57,12.57,0,0,0,2,.54,11.79,11.79,0,0,0,1.87.15,3.92,3.92,0,0,0,3-1.09,7.92,7.92,0,0,0,1.82-2.9q-2.49-4.92-5-11a141.86,141.86,0,0,1-4.73-13.79h7.78c.33,1.28.71,2.67,1.14,4.19s.93,3,1.42,4.53,1,3,1.48,4.43,1,2.76,1.48,3.94c.43-1.18.87-2.5,1.33-3.94s.9-2.92,1.33-4.43.89-3.06,1.28-4.53.8-2.91,1.13-4.19Z"/></svg>