<svg id="Layer_1" data-name="Layer 1" xmlns="http://www.w3.org/2000/svg" viewBox="0 0 289.63 75.57"><defs><style>.cls-1,.cls-2,.cls-3{fill:#fff;}.cls-2{isolation:isolate;opacity:0.6;}.cls-3{opacity:0.6;}</style></defs><path class="cls-1" d="M107.68,33.8a15.32,15.32,0,0,1,.89-5.27,12.74,12.74,0,0,1,6.84-7.29A14,14,0,0,1,121,20.16a18.65,18.65,0,0,1,7.14,1.43l-1.53,5.86a22.62,22.62,0,0,0-2.26-.69,12.89,12.89,0,0,0-2.76-.3,5.94,5.94,0,0,0-4.88,2,8.4,8.4,0,0,0-1.57,5.32,8.68,8.68,0,0,0,1.47,5.42c1,1.28,2.77,1.92,5.27,1.92a16.25,16.25,0,0,0,2.86-.25,11.1,11.1,0,0,0,2.81-.79l1,6a17.24,17.24,0,0,1-3.2.94,20.16,20.16,0,0,1-4.24.39,16.06,16.06,0,0,1-6.1-1,11.82,11.82,0,0,1-4.24-2.91,11.57,11.57,0,0,1-2.41-4.28A18.69,18.69,0,0,1,107.68,33.8Zm49.24-13q-2.22,7.48-4.63,14T147,47.51A28.94,28.94,0,0,1,145,51.25a10.85,10.85,0,0,1-2.26,2.56,7.46,7.46,0,0,1-2.81,1.48,11.59,11.59,0,0,1-3.6.49,13.76,13.76,0,0,1-3.2-.34,12.06,12.06,0,0,1-2.36-.69L132,48.89a11.59,11.59,0,0,0,2,.54,9.7,9.7,0,0,0,1.87.15,3.91,3.91,0,0,0,3-1.09,8.08,8.08,0,0,0,1.83-2.9q-2.52-4.92-5-11A136.63,136.63,0,0,1,131,20.8h7.78c.32,1.28.7,2.67,1.13,4.19s.93,3,1.43,4.53,1,3,1.47,4.43,1,2.76,1.48,3.94c.43-1.18.87-2.5,1.33-3.94s.9-2.92,1.33-4.43.89-3.06,1.28-4.53.81-2.91,1.13-4.19Zm20.53,12.75q0-7.08-5.22-7.09a9.62,9.62,0,0,0-2.27.3,6.44,6.44,0,0,0-1.77.74V40.84c.36.07.82.13,1.38.2a15.18,15.18,0,0,0,1.82.05A5.24,5.24,0,0,0,175.92,39a9,9,0,0,0,1.53-5.45Zm7.48.2a16.16,16.16,0,0,1-.93,5.61,11.37,11.37,0,0,1-6.85,7,16.13,16.13,0,0,1-5.71.93,26.31,26.31,0,0,1-2.81-.15c-1-.06-1.9-.16-2.85-.29s-1.81-.28-2.66-.44a21,21,0,0,1-2.27-.6V9.69l7.34-1.18v12.9a14.2,14.2,0,0,1,2.56-.84,14.38,14.38,0,0,1,2.86-.29,11.71,11.71,0,0,1,4.87,1A9.63,9.63,0,0,1,182,24a12.49,12.49,0,0,1,2.16,4.29,19.49,19.49,0,0,1,.74,5.52Zm4.41.2a15.78,15.78,0,0,1,1-6,13.3,13.3,0,0,1,2.81-4.33A11.74,11.74,0,0,1,197.09,21a12.83,12.83,0,0,1,4.63-.89,11.48,11.48,0,0,1,8.72,3.4q3.19,3.36,3.2,9.9v1.42c0,.52-.07.94-.1,1.33H196.85a4.87,4.87,0,0,0,2.12,3.6,8.4,8.4,0,0,0,5,1.33,20.84,20.84,0,0,0,3.94-.35,15,15,0,0,0,3.2-.93l1,6a10.4,10.4,0,0,1-1.58.59,17.13,17.13,0,0,1-2.21.49,22.29,22.29,0,0,1-2.56.39,25.52,25.52,0,0,1-2.76.15,16.27,16.27,0,0,1-6.11-1,12.12,12.12,0,0,1-4.28-2.81,11.72,11.72,0,0,1-2.51-4.28,16.88,16.88,0,0,1-.76-5.38Zm17.24-2.81a7.61,7.61,0,0,0-.35-1.82,4.16,4.16,0,0,0-.84-1.58A4.33,4.33,0,0,0,204,26.61a5.33,5.33,0,0,0-4.24,0,4.2,4.2,0,0,0-1.48,1.08,5.3,5.3,0,0,0-.93,1.63,10.75,10.75,0,0,0-.45,1.82Zm28.36-3.84c-.66-.16-1.43-.33-2.32-.49a13.73,13.73,0,0,0-2.85-.3,11.66,11.66,0,0,0-1.68.15,9.58,9.58,0,0,0-1.42.25V46.7h-7.34V22.2A42.8,42.8,0,0,1,224,20.92a26.26,26.26,0,0,1,6-.64,13.74,13.74,0,0,1,1.42.1,16,16,0,0,1,1.68.19c.56.08,1.11.18,1.67.3a8.2,8.2,0,0,1,1.43.39Zm20.77,0c-.65-.16-1.42-.33-2.31-.49a13.75,13.75,0,0,0-2.86-.3,11.65,11.65,0,0,0-1.67.15,9.49,9.49,0,0,0-1.43.25V46.7H240.1V22.2a42.8,42.8,0,0,1,4.63-1.28,26.26,26.26,0,0,1,6-.64,13.94,13.94,0,0,1,1.43.1,15.81,15.81,0,0,1,1.67.19q.84.12,1.68.3a9.19,9.19,0,0,1,1.43.39Zm29.71-6.5q-2.22,7.48-4.63,14t-5.27,12.71a28.94,28.94,0,0,1-2.07,3.74,10.89,10.89,0,0,1-2.27,2.56,7.42,7.42,0,0,1-2.8,1.48,11.59,11.59,0,0,1-3.6.49,13.76,13.76,0,0,1-3.2-.34,12.06,12.06,0,0,1-2.36-.69l1.28-5.86a11.59,11.59,0,0,0,2,.54,9.7,9.7,0,0,0,1.87.15,3.91,3.91,0,0,0,3-1.09,8.05,8.05,0,0,0,1.82-2.9q-2.51-4.92-5-11a139.23,139.23,0,0,1-4.73-13.79h7.78c.33,1.28.71,2.67,1.14,4.19s.93,3,1.42,4.53,1,3,1.48,4.43,1,2.76,1.48,3.94c.43-1.18.87-2.5,1.33-3.94s.9-2.92,1.33-4.43.89-3.06,1.28-4.53.8-2.91,1.13-4.19Z"/><path class="cls-2" d="M57.15,6.7l-.52-.26C54.24,5.16,32.26-5.64,14.4,19.16,2,36.37,3.4,49.61,5.87,56.69a15,15,0,0,0,9.77,9.56c6.89,2.13,19,2.19,36.85-10.6C77.63,37.6,68.62,12.38,57.15,6.7Z"/><path class="cls-3" d="M51.79,3.56S26.3,2.86,21.67,31.15C18.39,51.25,32.57,63.58,41.06,69a21.37,21.37,0,0,0,13.49,3.46A12.48,12.48,0,0,0,61,70.06c.94-.63,18.4-12,19.1-36.95S56.85,3.52,51.79,3.56Z"/><path class="cls-2" d="M81.72,12.24A25.47,25.47,0,0,0,63.65,3.48c-5.94-.2-13,1.68-19.47,8.88-15.12,16.81,6.17,34.17,6.17,34.17s21.89,19.76,37.25,7C97.77,45.1,92.43,24.42,81.72,12.24Z"/></svg>