<svg id="Layer_1" data-name="Layer 1" xmlns="http://www.w3.org/2000/svg" viewBox="0 0 90.73 71.23"><defs><style>.cls-1{fill:#a034e2;}.cls-1,.cls-3{isolation:isolate;opacity:0.6;}.cls-2{fill:#5e55f3;opacity:0.6;}.cls-3{fill:#2faae7;}</style></defs><path class="cls-1" d="M53.89,4.53l-.52-.26C51,3,29-7.81,11.14,17-1.25,34.2.14,47.44,2.61,54.52a15.09,15.09,0,0,0,9.77,9.56c6.89,2.13,19,2.19,36.85-10.6C74.37,35.43,65.36,10.21,53.89,4.53Z"/><path class="cls-2" d="M48.53,1.39S23,.69,18.41,29c-3.28,20.1,10.9,32.43,19.39,37.88a21.41,21.41,0,0,0,13.49,3.46,12.41,12.41,0,0,0,6.43-2.43c.94-.63,18.4-12,19.1-36.95S53.59,1.35,48.53,1.39Z"/><path class="cls-3" d="M78.46,10.07A25.45,25.45,0,0,0,60.39,1.31c-5.94-.2-13,1.68-19.47,8.88C25.8,27,47.09,44.36,47.09,44.36s21.89,19.76,37.25,7C94.51,42.93,89.17,22.25,78.46,10.07Z"/></svg>