<svg id="Layer_1" data-name="Layer 1" xmlns="http://www.w3.org/2000/svg" viewBox="0 0 286.56 76.09"><defs><style>.cls-1{fill:#fff;}.cls-2{fill:#a034e2;}.cls-2,.cls-4{isolation:isolate;opacity:0.6;}.cls-3{fill:#5e55f3;opacity:0.6;}.cls-4{fill:#2faae7;}</style></defs><path class="cls-1" d="M106.14,34.31A15.56,15.56,0,0,1,107,29a12.74,12.74,0,0,1,6.84-7.29,14.1,14.1,0,0,1,5.62-1.08,18.61,18.61,0,0,1,7.14,1.43L125.1,28a21.84,21.84,0,0,0-2.26-.69,11.62,11.62,0,0,0-2.76-.3,6,6,0,0,0-4.88,2,8.44,8.44,0,0,0-1.57,5.32,8.81,8.81,0,0,0,1.47,5.42q1.53,1.92,5.27,1.92a16.09,16.09,0,0,0,2.86-.25,11.41,11.41,0,0,0,2.81-.79l1,6a16.8,16.8,0,0,1-3.2.94,20,20,0,0,1-4.24.39,16.29,16.29,0,0,1-6.1-1,11.11,11.11,0,0,1-6.65-7.19A19.4,19.4,0,0,1,106.14,34.31Zm49.24-13q-2.22,7.49-4.63,14T145.48,48a26.73,26.73,0,0,1-2.07,3.74,10.43,10.43,0,0,1-2.26,2.56,7.53,7.53,0,0,1-2.81,1.48,11.51,11.51,0,0,1-3.6.49,13.82,13.82,0,0,1-3.2-.34,12.47,12.47,0,0,1-2.36-.69l1.28-5.86a11.59,11.59,0,0,0,2,.54,9.83,9.83,0,0,0,1.87.15,3.89,3.89,0,0,0,3-1.09,7.81,7.81,0,0,0,1.83-2.9q-2.52-4.92-5-11a141.8,141.8,0,0,1-4.72-13.79h7.78c.32,1.28.7,2.67,1.13,4.19s.93,3,1.43,4.53,1,3,1.47,4.43,1,2.76,1.48,3.94c.43-1.18.87-2.5,1.33-3.94s.9-2.92,1.33-4.43.89-3.06,1.28-4.53.81-2.91,1.13-4.19Zm20.53,12.75q0-7.08-5.22-7.09a9.69,9.69,0,0,0-2.27.3,6.71,6.71,0,0,0-1.77.74V41.35c.36.07.82.13,1.38.2a15.18,15.18,0,0,0,1.82.05,5.27,5.27,0,0,0,4.53-2.07,8.93,8.93,0,0,0,1.53-5.45Zm7.48.2a15.78,15.78,0,0,1-.93,5.61,11.7,11.7,0,0,1-2.61,4.29,11.83,11.83,0,0,1-4.24,2.76,16.06,16.06,0,0,1-5.71.93,26.59,26.59,0,0,1-2.81-.15c-1-.06-1.9-.16-2.85-.29s-1.81-.28-2.66-.44a21,21,0,0,1-2.27-.6V10.2L166.65,9v12.9a14.74,14.74,0,0,1,2.56-.84,14.45,14.45,0,0,1,2.86-.29,11.64,11.64,0,0,1,4.87,1,9.47,9.47,0,0,1,3.55,2.71,12.06,12.06,0,0,1,2.16,4.29,18.8,18.8,0,0,1,.74,5.52Zm4.41.2a16.17,16.17,0,0,1,1-6,13.47,13.47,0,0,1,2.81-4.33,11.69,11.69,0,0,1,3.94-2.61,12.91,12.91,0,0,1,4.63-.89A11.41,11.41,0,0,1,208.9,24q3.21,3.36,3.2,9.9v1.42c0,.52-.07.94-.1,1.33H195.31a4.93,4.93,0,0,0,2.12,3.6,8.43,8.43,0,0,0,5,1.33,21.7,21.7,0,0,0,3.94-.35,14.85,14.85,0,0,0,3.2-.93l1,6a10,10,0,0,1-1.58.59,16.42,16.42,0,0,1-2.21.49,22,22,0,0,1-2.56.39,25.25,25.25,0,0,1-2.76.15,16.34,16.34,0,0,1-6.11-1,12.44,12.44,0,0,1-4.28-2.81,11.86,11.86,0,0,1-2.51-4.28,17.46,17.46,0,0,1-.76-5.38ZM205,31.65a6.67,6.67,0,0,0-.35-1.82,3.9,3.9,0,0,0-.84-1.58,4.23,4.23,0,0,0-1.42-1.13,4.54,4.54,0,0,0-2.12-.44,4.72,4.72,0,0,0-2.12.44,4.38,4.38,0,0,0-1.48,1.08,5.51,5.51,0,0,0-.93,1.63,11.8,11.8,0,0,0-.45,1.82Zm28.36-3.84c-.66-.16-1.43-.33-2.32-.49a13.59,13.59,0,0,0-2.85-.3,11.92,11.92,0,0,0-1.68.15,9.82,9.82,0,0,0-1.42.25V47.21h-7.34V22.71a41.8,41.8,0,0,1,4.63-1.28,26.38,26.38,0,0,1,6-.64,13.36,13.36,0,0,1,1.42.1,26,26,0,0,1,3.35.49,7,7,0,0,1,1.43.39Zm20.77,0c-.65-.16-1.42-.33-2.31-.49A13.68,13.68,0,0,0,249,27a11.78,11.78,0,0,0-1.67.15,10,10,0,0,0-1.43.25V47.21h-7.34V22.71a44.11,44.11,0,0,1,4.63-1.28,26.38,26.38,0,0,1,6-.64,13.55,13.55,0,0,1,1.43.1,26.71,26.71,0,0,1,3.35.49,8.62,8.62,0,0,1,1.43.39Zm29.71-6.5q-2.22,7.49-4.63,14T274,48a26.73,26.73,0,0,1-2.07,3.74,10.47,10.47,0,0,1-2.27,2.56,7.27,7.27,0,0,1-2.8,1.48,11.51,11.51,0,0,1-3.6.49A13.82,13.82,0,0,1,260,56a12.47,12.47,0,0,1-2.36-.69L259,49.4a11.59,11.59,0,0,0,2,.54,9.83,9.83,0,0,0,1.87.15,3.89,3.89,0,0,0,3-1.09,7.92,7.92,0,0,0,1.82-2.9q-2.49-4.92-5-11a141.86,141.86,0,0,1-4.73-13.79h7.78c.33,1.28.71,2.67,1.14,4.19s.93,3,1.42,4.53,1,3,1.48,4.43,1,2.76,1.48,3.94c.43-1.18.87-2.5,1.33-3.94s.9-2.92,1.33-4.43.89-3.06,1.28-4.53.8-2.91,1.13-4.19Z"/><path class="cls-2" d="M55.61,7.21,55.09,7C52.7,5.67,30.72-5.13,12.86,19.67.47,36.88,1.86,50.12,4.33,57.2a15.09,15.09,0,0,0,9.77,9.56C21,68.89,33.1,69,51,56.16,76.09,38.11,67.08,12.89,55.61,7.21Z"/><path class="cls-3" d="M50.25,4.07s-25.49-.7-30.12,27.59C16.85,51.76,31,64.09,39.52,69.54A21.41,21.41,0,0,0,53,73a12.41,12.41,0,0,0,6.43-2.43c.94-.63,18.4-12,19.1-36.95S55.31,4,50.25,4.07Z"/><path class="cls-4" d="M80.18,12.75A25.45,25.45,0,0,0,62.11,4c-5.94-.2-13,1.68-19.47,8.88C27.52,29.68,48.81,47,48.81,47S70.7,66.8,86.06,54C96.23,45.61,90.89,24.93,80.18,12.75Z"/></svg>