<svg id="Layer_1" data-name="Layer 1" xmlns="http://www.w3.org/2000/svg" viewBox="0 0 92.52 73.02"><defs><style>.cls-1,.cls-2{fill:#fff;}.cls-1{isolation:isolate;opacity:0.6;}.cls-2{opacity:0.6;}</style></defs><path class="cls-1" d="M54.79,5.43l-.52-.26C51.88,3.89,29.9-6.91,12,17.89-.35,35.1,1,48.34,3.51,55.42A15.09,15.09,0,0,0,13.28,65c6.89,2.13,19,2.19,36.85-10.6C75.27,36.33,66.26,11.11,54.79,5.43Z"/><path class="cls-2" d="M49.43,2.29s-25.49-.7-30.12,27.59C16,50,30.21,62.31,38.7,67.76a21.44,21.44,0,0,0,13.49,3.46,12.65,12.65,0,0,0,6.43-2.43c.94-.63,18.4-12,19.1-36.95S54.49,2.25,49.43,2.29Z"/><path class="cls-1" d="M79.36,11A25.39,25.39,0,0,0,61.29,2.21c-5.94-.2-13,1.68-19.47,8.88C26.7,27.9,48,45.26,48,45.26s21.89,19.76,37.25,7C95.41,43.83,90.07,23.15,79.36,11Z"/></svg>